<svg width="630" height="630" viewBox="0 0 630 630" fill="none" xmlns="http://www.w3.org/2000/svg">
<rect width="630" height="630" fill="#ECC18C"/>
<g filter="url(#filter0_d_0_1)">
<path d="M625.061 326.061C625.646 325.475 625.646 324.525 625.061 323.939L615.515 314.393C614.929 313.808 613.979 313.808 613.393 314.393C612.808 314.979 612.808 315.929 613.393 316.515L621.879 325L613.393 333.485C612.808 334.071 612.808 335.021 613.393 335.607C613.979 336.192 614.929 336.192 615.515 335.607L625.061 326.061ZM4 326.5H624V323.5H4V326.5Z" fill="black"/>
</g>
<g filter="url(#filter1_d_0_1)">
<path d="M316.061 0.93934C315.475 0.353553 314.525 0.353553 313.939 0.93934L304.393 10.4853C303.808 11.0711 303.808 12.0208 304.393 12.6066C304.979 13.1924 305.929 13.1924 306.515 12.6066L315 4.12132L323.485 12.6066C324.071 13.1924 325.021 13.1924 325.607 12.6066C326.192 12.0208 326.192 11.0711 325.607 10.4853L316.061 0.93934ZM316.5 622V2H313.5V622H316.5Z" fill="black"/>
</g>
<path d="M351 330V320" stroke="black" stroke-width="2"/>
<path d="M561 330V320" stroke="black" stroke-width="2"/>
<path d="M596 330V320" stroke="black" stroke-width="2"/>
<path d="M526 330V320" stroke="black" stroke-width="2"/>
<path d="M491 330V320" stroke="black" stroke-width="2"/>
<path d="M421 329V319" stroke="black" stroke-width="2"/>
<path d="M386 329V319" stroke="black" stroke-width="2"/>
<line x1="455" y1="330" x2="455" y2="320" stroke="black" stroke-width="2"/>
<path d="M310 80H320" stroke="black" stroke-width="2"/>
<path d="M310 45H320" stroke="black" stroke-width="2"/>
<line x1="310" y1="534" x2="320" y2="534" stroke="black" stroke-width="2"/>
<line x1="310" y1="359" x2="320" y2="359" stroke="black" stroke-width="2"/>
<line x1="310" y1="569" x2="320" y2="569" stroke="black" stroke-width="2"/>
<line x1="310" y1="604" x2="320" y2="604" stroke="black" stroke-width="2"/>
<line x1="310" y1="499" x2="320" y2="499" stroke="black" stroke-width="2"/>
<line x1="310" y1="464" x2="320" y2="464" stroke="black" stroke-width="2"/>
<line x1="310" y1="429" x2="320" y2="429" stroke="black" stroke-width="2"/>
<line x1="310" y1="394" x2="320" y2="394" stroke="black" stroke-width="2"/>
<path d="M310 290H320" stroke="black" stroke-width="2"/>
<path d="M310 255H320" stroke="black" stroke-width="2"/>
<line x1="310" y1="219" x2="320" y2="219" stroke="black" stroke-width="2"/>
<path d="M309 115H321" stroke="black" stroke-width="2"/>
<path d="M310 150H320" stroke="black" stroke-width="2"/>
<path d="M310 185H320" stroke="black" stroke-width="2"/>
<line x1="173" y1="330" x2="173" y2="320" stroke="black" stroke-width="2"/>
<path d="M209 330V320" stroke="black" stroke-width="2"/>
<path d="M69 330V320" stroke="black" stroke-width="2"/>
<path d="M34 330V320" stroke="black" stroke-width="2"/>
<path d="M104 330V320" stroke="black" stroke-width="2"/>
<path d="M139 330V320" stroke="black" stroke-width="2"/>
<path d="M244 330V320" stroke="black" stroke-width="2"/>
<path d="M279 330V320" stroke="black" stroke-width="2"/>
<g filter="url(#filter2_d_0_1)">
<path d="M174 324C174 305.615 177.621 287.41 184.657 270.424C191.693 253.439 202.005 238.005 215.005 225.005C228.005 212.005 243.439 201.693 260.424 194.657C277.41 187.621 295.615 184 314 184L314 324H174Z" fill="#00BFFF"/>
</g>
<g filter="url(#filter3_d_0_1)">
<path d="M314 326L314 463L243.5 326L314 326Z" fill="#00BFFF"/>
</g>
<g filter="url(#filter4_d_0_1)">
<path d="M315 325H456V465H315V325Z" fill="#00BFFF"/>
</g>
<defs>
<filter id="filter0_d_0_1" x="0" y="313.954" width="629.5" height="30.0919" filterUnits="userSpaceOnUse" color-interpolation-filters="sRGB">
<feFlood flood-opacity="0" result="BackgroundImageFix"/>
<feColorMatrix in="SourceAlpha" type="matrix" values="0 0 0 0 0 0 0 0 0 0 0 0 0 0 0 0 0 0 127 0" result="hardAlpha"/>
<feOffset dy="4"/>
<feGaussianBlur stdDeviation="2"/>
<feComposite in2="hardAlpha" operator="out"/>
<feColorMatrix type="matrix" values="0 0 0 0 0 0 0 0 0 0 0 0 0 0 0 0 0 0 0.25 0"/>
<feBlend mode="normal" in2="BackgroundImageFix" result="effect1_dropShadow_0_1"/>
<feBlend mode="normal" in="SourceGraphic" in2="effect1_dropShadow_0_1" result="shape"/>
</filter>
<filter id="filter1_d_0_1" x="299.954" y="0.5" width="30.0919" height="629.5" filterUnits="userSpaceOnUse" color-interpolation-filters="sRGB">
<feFlood flood-opacity="0" result="BackgroundImageFix"/>
<feColorMatrix in="SourceAlpha" type="matrix" values="0 0 0 0 0 0 0 0 0 0 0 0 0 0 0 0 0 0 127 0" result="hardAlpha"/>
<feOffset dy="4"/>
<feGaussianBlur stdDeviation="2"/>
<feComposite in2="hardAlpha" operator="out"/>
<feColorMatrix type="matrix" values="0 0 0 0 0 0 0 0 0 0 0 0 0 0 0 0 0 0 0.25 0"/>
<feBlend mode="normal" in2="BackgroundImageFix" result="effect1_dropShadow_0_1"/>
<feBlend mode="normal" in="SourceGraphic" in2="effect1_dropShadow_0_1" result="shape"/>
</filter>
<filter id="filter2_d_0_1" x="170" y="184" width="148" height="148" filterUnits="userSpaceOnUse" color-interpolation-filters="sRGB">
<feFlood flood-opacity="0" result="BackgroundImageFix"/>
<feColorMatrix in="SourceAlpha" type="matrix" values="0 0 0 0 0 0 0 0 0 0 0 0 0 0 0 0 0 0 127 0" result="hardAlpha"/>
<feOffset dy="4"/>
<feGaussianBlur stdDeviation="2"/>
<feComposite in2="hardAlpha" operator="out"/>
<feColorMatrix type="matrix" values="0 0 0 0 0 0 0 0 0 0 0 0 0 0 0 0 0 0 0.25 0"/>
<feBlend mode="normal" in2="BackgroundImageFix" result="effect1_dropShadow_0_1"/>
<feBlend mode="normal" in="SourceGraphic" in2="effect1_dropShadow_0_1" result="shape"/>
</filter>
<filter id="filter3_d_0_1" x="239.5" y="326" width="78.5" height="145" filterUnits="userSpaceOnUse" color-interpolation-filters="sRGB">
<feFlood flood-opacity="0" result="BackgroundImageFix"/>
<feColorMatrix in="SourceAlpha" type="matrix" values="0 0 0 0 0 0 0 0 0 0 0 0 0 0 0 0 0 0 127 0" result="hardAlpha"/>
<feOffset dy="4"/>
<feGaussianBlur stdDeviation="2"/>
<feComposite in2="hardAlpha" operator="out"/>
<feColorMatrix type="matrix" values="0 0 0 0 0 0 0 0 0 0 0 0 0 0 0 0 0 0 0.25 0"/>
<feBlend mode="normal" in2="BackgroundImageFix" result="effect1_dropShadow_0_1"/>
<feBlend mode="normal" in="SourceGraphic" in2="effect1_dropShadow_0_1" result="shape"/>
</filter>
<filter id="filter4_d_0_1" x="311" y="325" width="149" height="148" filterUnits="userSpaceOnUse" color-interpolation-filters="sRGB">
<feFlood flood-opacity="0" result="BackgroundImageFix"/>
<feColorMatrix in="SourceAlpha" type="matrix" values="0 0 0 0 0 0 0 0 0 0 0 0 0 0 0 0 0 0 127 0" result="hardAlpha"/>
<feOffset dy="4"/>
<feGaussianBlur stdDeviation="2"/>
<feComposite in2="hardAlpha" operator="out"/>
<feColorMatrix type="matrix" values="0 0 0 0 0 0 0 0 0 0 0 0 0 0 0 0 0 0 0.25 0"/>
<feBlend mode="normal" in2="BackgroundImageFix" result="effect1_dropShadow_0_1"/>
<feBlend mode="normal" in="SourceGraphic" in2="effect1_dropShadow_0_1" result="shape"/>
</filter>
</defs>
</svg>
